%TF.GenerationSoftware,KiCad,Pcbnew,9.0.7*%
%TF.CreationDate,2026-05-09T20:38:39+02:00*%
%TF.ProjectId,hp3547Display,68703335-3437-4446-9973-706c61792e6b,rev?*%
%TF.SameCoordinates,Original*%
%TF.FileFunction,Paste,Top*%
%TF.FilePolarity,Positive*%
%FSLAX46Y46*%
G04 Gerber Fmt 4.6, Leading zero omitted, Abs format (unit mm)*
G04 Created by KiCad (PCBNEW 9.0.7) date 2026-05-09 20:38:39*
%MOMM*%
%LPD*%
G01*
G04 APERTURE LIST*
%ADD10R,0.320000X3.000000*%
G04 APERTURE END LIST*
D10*
%TO.C,U13*%
X127530000Y-83050000D03*
X126910000Y-83050000D03*
X126290000Y-83050000D03*
X125670000Y-83050000D03*
X125050000Y-83050000D03*
X124430000Y-83050000D03*
X123810000Y-83050000D03*
X123190000Y-83050000D03*
X122570000Y-83050000D03*
X121950000Y-83050000D03*
X121330000Y-83050000D03*
X120710000Y-83050000D03*
X120090000Y-83050000D03*
X119470000Y-83050000D03*
%TD*%
%TO.C,U15*%
X107530000Y-83050000D03*
X106910000Y-83050000D03*
X106290000Y-83050000D03*
X105670000Y-83050000D03*
X105050000Y-83050000D03*
X104430000Y-83050000D03*
X103810000Y-83050000D03*
X103190000Y-83050000D03*
X102570000Y-83050000D03*
X101950000Y-83050000D03*
X101330000Y-83050000D03*
X100710000Y-83050000D03*
X100090000Y-83050000D03*
X99470000Y-83050000D03*
%TD*%
%TO.C,U6*%
X197530000Y-83050000D03*
X196910000Y-83050000D03*
X196290000Y-83050000D03*
X195670000Y-83050000D03*
X195050000Y-83050000D03*
X194430000Y-83050000D03*
X193810000Y-83050000D03*
X193190000Y-83050000D03*
X192570000Y-83050000D03*
X191950000Y-83050000D03*
X191330000Y-83050000D03*
X190710000Y-83050000D03*
X190090000Y-83050000D03*
X189470000Y-83050000D03*
%TD*%
%TO.C,U10*%
X157530000Y-83050000D03*
X156910000Y-83050000D03*
X156290000Y-83050000D03*
X155670000Y-83050000D03*
X155050000Y-83050000D03*
X154430000Y-83050000D03*
X153810000Y-83050000D03*
X153190000Y-83050000D03*
X152570000Y-83050000D03*
X151950000Y-83050000D03*
X151330000Y-83050000D03*
X150710000Y-83050000D03*
X150090000Y-83050000D03*
X149470000Y-83050000D03*
%TD*%
%TO.C,U12*%
X137530000Y-83050000D03*
X136910000Y-83050000D03*
X136290000Y-83050000D03*
X135670000Y-83050000D03*
X135050000Y-83050000D03*
X134430000Y-83050000D03*
X133810000Y-83050000D03*
X133190000Y-83050000D03*
X132570000Y-83050000D03*
X131950000Y-83050000D03*
X131330000Y-83050000D03*
X130710000Y-83050000D03*
X130090000Y-83050000D03*
X129470000Y-83050000D03*
%TD*%
%TO.C,U2*%
X199470000Y-83050000D03*
X200090000Y-83050000D03*
X200710000Y-83050000D03*
X201330000Y-83050000D03*
X201950000Y-83050000D03*
X202570000Y-83050000D03*
X203190000Y-83050000D03*
X203810000Y-83050000D03*
X204430000Y-83050000D03*
X205050000Y-83050000D03*
X205670000Y-83050000D03*
X206290000Y-83050000D03*
X206910000Y-83050000D03*
X207530000Y-83050000D03*
%TD*%
%TO.C,U9*%
X167530000Y-83050000D03*
X166910000Y-83050000D03*
X166290000Y-83050000D03*
X165670000Y-83050000D03*
X165050000Y-83050000D03*
X164430000Y-83050000D03*
X163810000Y-83050000D03*
X163190000Y-83050000D03*
X162570000Y-83050000D03*
X161950000Y-83050000D03*
X161330000Y-83050000D03*
X160710000Y-83050000D03*
X160090000Y-83050000D03*
X159470000Y-83050000D03*
%TD*%
%TO.C,U16*%
X97530000Y-83050000D03*
X96910000Y-83050000D03*
X96290000Y-83050000D03*
X95670000Y-83050000D03*
X95050000Y-83050000D03*
X94430000Y-83050000D03*
X93810000Y-83050000D03*
X93190000Y-83050000D03*
X92570000Y-83050000D03*
X91950000Y-83050000D03*
X91330000Y-83050000D03*
X90710000Y-83050000D03*
X90090000Y-83050000D03*
X89470000Y-83050000D03*
%TD*%
%TO.C,U14*%
X117530000Y-83050000D03*
X116910000Y-83050000D03*
X116290000Y-83050000D03*
X115670000Y-83050000D03*
X115050000Y-83050000D03*
X114430000Y-83050000D03*
X113810000Y-83050000D03*
X113190000Y-83050000D03*
X112570000Y-83050000D03*
X111950000Y-83050000D03*
X111330000Y-83050000D03*
X110710000Y-83050000D03*
X110090000Y-83050000D03*
X109470000Y-83050000D03*
%TD*%
%TO.C,U8*%
X177530000Y-83050000D03*
X176910000Y-83050000D03*
X176290000Y-83050000D03*
X175670000Y-83050000D03*
X175050000Y-83050000D03*
X174430000Y-83050000D03*
X173810000Y-83050000D03*
X173190000Y-83050000D03*
X172570000Y-83050000D03*
X171950000Y-83050000D03*
X171330000Y-83050000D03*
X170710000Y-83050000D03*
X170090000Y-83050000D03*
X169470000Y-83050000D03*
%TD*%
%TO.C,U7*%
X187530000Y-83050000D03*
X186910000Y-83050000D03*
X186290000Y-83050000D03*
X185670000Y-83050000D03*
X185050000Y-83050000D03*
X184430000Y-83050000D03*
X183810000Y-83050000D03*
X183190000Y-83050000D03*
X182570000Y-83050000D03*
X181950000Y-83050000D03*
X181330000Y-83050000D03*
X180710000Y-83050000D03*
X180090000Y-83050000D03*
X179470000Y-83050000D03*
%TD*%
%TO.C,U11*%
X147530000Y-83050000D03*
X146910000Y-83050000D03*
X146290000Y-83050000D03*
X145670000Y-83050000D03*
X145050000Y-83050000D03*
X144430000Y-83050000D03*
X143810000Y-83050000D03*
X143190000Y-83050000D03*
X142570000Y-83050000D03*
X141950000Y-83050000D03*
X141330000Y-83050000D03*
X140710000Y-83050000D03*
X140090000Y-83050000D03*
X139470000Y-83050000D03*
%TD*%
M02*
