M48
; DRILL file {KiCad 9.0.7} date 2026-05-09T20:38:38+0200
; FORMAT={-:-/ absolute / metric / decimal}
; #@! TF.CreationDate,2026-05-09T20:38:38+02:00
; #@! TF.GenerationSoftware,Kicad,Pcbnew,9.0.7
; #@! TF.FileFunction,Plated,1,2,PTH
FMAT,2
METRIC
; #@! TA.AperFunction,Plated,PTH,ViaDrill
T1C0.300
; #@! TA.AperFunction,Plated,PTH,ComponentDrill
T2C1.000
%
G90
G05
T1
X89.47Y-80.83
X90.0Y-90.1
X91.2Y-77.362
X91.95Y-85.4
X92.2Y-80.45
X92.6Y-85.4
X93.25Y-77.362
X93.8Y-81.25
X93.95Y-80.45
X94.7Y-98.6
X94.7Y-100.3
X94.8Y-81.2
X95.6Y-80.25
X95.85Y-76.75
X96.4Y-96.6
X97.0Y-76.75
X97.0Y-80.4
X97.6Y-96.6
X98.4Y-85.4
X98.5Y-99.4
X98.5Y-101.0
X99.47Y-80.83
X100.0Y-108.0
X100.9Y-100.2
X101.0Y-98.6
X101.2Y-77.362
X101.95Y-85.4
X102.2Y-80.45
X102.5Y-97.1
X102.6Y-85.4
X102.6Y-94.4
X103.25Y-77.362
X103.4Y-94.4
X103.8Y-81.25
X103.95Y-80.45
X104.2Y-94.4
X104.8Y-81.2
X105.0Y-94.4
X105.0Y-105.2
X105.3Y-85.4
X105.6Y-80.25
X105.8Y-94.4
X105.8Y-105.2
X105.85Y-76.75
X106.3Y-88.4
X106.6Y-94.4
X106.6Y-105.2
X106.7Y-97.8
X106.7Y-99.4
X107.0Y-76.75
X107.0Y-80.4
X107.0Y-91.0
X109.2Y-101.8
X109.2Y-102.6
X109.47Y-80.83
X109.7Y-100.7
X110.8Y-105.9
X111.2Y-77.362
X111.4Y-107.0
X111.7Y-95.1
X111.9Y-104.0
X111.95Y-85.4
X112.2Y-80.45
X112.2Y-98.3
X112.6Y-85.4
X113.25Y-77.362
X113.8Y-81.25
X113.95Y-80.45
X114.4Y-104.2
X114.4Y-105.7
X114.8Y-81.2
X115.6Y-80.25
X115.85Y-76.75
X116.4Y-96.1
X116.9Y-97.9
X117.0Y-76.75
X117.0Y-80.4
X117.4Y-85.4
X119.47Y-80.83
X121.2Y-77.362
X121.6Y-96.5
X121.95Y-85.4
X122.2Y-80.45
X122.5Y-99.5
X122.5Y-100.5
X122.5Y-101.5
X122.6Y-85.4
X123.25Y-77.362
X123.5Y-99.5
X123.5Y-100.5
X123.5Y-101.5
X123.5Y-106.0
X123.8Y-81.25
X123.95Y-80.45
X124.5Y-99.5
X124.5Y-100.5
X124.5Y-101.5
X124.8Y-81.2
X125.6Y-80.25
X125.85Y-76.75
X126.4Y-89.3
X126.5Y-92.7
X127.0Y-76.75
X127.0Y-80.4
X127.0Y-97.5
X127.1Y-85.4
X128.1Y-93.2
X128.3Y-89.2
X128.9Y-97.6
X129.47Y-80.83
X129.8Y-94.2
X130.3Y-89.4
X130.5Y-93.3
X131.1Y-94.8
X131.2Y-77.362
X131.95Y-85.4
X132.2Y-80.45
X132.6Y-85.4
X133.25Y-77.362
X133.8Y-81.25
X133.95Y-80.45
X134.8Y-81.2
X135.2Y-101.8
X135.6Y-80.25
X135.85Y-76.75
X137.0Y-76.75
X137.0Y-80.4
X138.5Y-85.4
X139.47Y-80.83
X141.2Y-77.362
X141.95Y-85.4
X142.2Y-80.45
X142.6Y-85.4
X143.25Y-77.362
X143.8Y-81.25
X143.95Y-80.45
X144.8Y-81.2
X145.6Y-80.25
X145.85Y-76.75
X147.0Y-76.75
X147.0Y-80.4
X148.5Y-85.4
X149.47Y-80.83
X151.2Y-77.362
X151.95Y-85.4
X152.2Y-80.45
X152.6Y-85.4
X153.25Y-77.362
X153.8Y-81.25
X153.95Y-80.45
X154.8Y-81.2
X155.6Y-80.25
X155.85Y-76.75
X157.0Y-76.75
X157.0Y-80.4
X158.5Y-85.4
X159.47Y-80.83
X161.2Y-77.362
X161.6Y-94.1
X161.95Y-85.4
X162.2Y-80.45
X162.6Y-85.4
X163.25Y-77.362
X163.8Y-81.25
X163.95Y-80.45
X164.8Y-81.2
X165.6Y-80.25
X165.85Y-76.75
X167.0Y-76.75
X167.0Y-80.4
X168.5Y-85.4
X169.47Y-80.83
X171.2Y-77.362
X171.95Y-85.4
X172.2Y-80.45
X172.6Y-85.4
X173.25Y-77.362
X173.8Y-81.25
X173.95Y-80.45
X174.8Y-81.2
X175.6Y-80.25
X175.85Y-76.75
X177.0Y-76.75
X177.0Y-80.4
X178.5Y-85.4
X179.47Y-80.83
X181.2Y-77.362
X181.95Y-85.4
X182.2Y-80.45
X182.6Y-85.4
X183.25Y-77.362
X183.8Y-81.25
X183.95Y-80.45
X184.8Y-81.2
X185.6Y-80.25
X185.85Y-76.75
X187.0Y-76.75
X187.0Y-80.4
X188.5Y-85.4
X189.47Y-80.83
X191.2Y-77.362
X191.95Y-85.4
X192.2Y-80.45
X192.6Y-85.4
X193.25Y-77.362
X193.8Y-81.25
X193.95Y-80.45
X194.8Y-81.2
X195.6Y-80.25
X195.85Y-76.75
X197.0Y-76.75
X197.0Y-80.4
X198.5Y-85.4
X199.47Y-80.83
X201.2Y-77.362
X201.95Y-85.4
X202.2Y-80.45
X202.6Y-85.4
X203.25Y-77.362
X203.8Y-81.25
X203.95Y-80.45
X204.8Y-81.2
X205.6Y-80.25
X205.85Y-76.75
X207.0Y-76.75
X207.0Y-80.4
T2
X84.735Y-90.96
X84.735Y-93.5
X84.735Y-96.04
X87.275Y-90.96
X87.275Y-93.5
X87.275Y-96.04
M30
